<svg xmlns="http://www.w3.org/2000/svg" width="359" height="262" viewBox="0 0 359 262">
    <g fill="none" fill-rule="evenodd">
        <circle cx="179.125" cy="130.875" r="130.875" fill="#D8D8D8" opacity=".338"/>
        <g fill-rule="nonzero">
            <g fill="#99AAB5">
                <path d="M64.548 142.64c-30.057 0-54.409 24.41-54.409 54.54s24.352 54.541 54.409 54.541 54.409-24.41 54.409-54.54c.07-30.06-24.282-54.542-54.41-54.542zm0 89.273c-19.134 0-34.65-15.553-34.65-34.733 0-19.18 15.516-34.733 34.65-34.733 19.133 0 34.649 15.553 34.649 34.733 0 19.18-15.516 34.733-34.65 34.733zM292.202 142.64c-30.057 0-54.409 24.41-54.409 54.54s24.352 54.541 54.41 54.541c30.056 0 54.408-24.41 54.408-54.54 0-30.06-24.421-54.542-54.409-54.542zm0 89.273c-19.133 0-34.649-15.553-34.649-34.733 0-19.18 15.516-34.733 34.65-34.733 19.133 0 34.648 15.553 34.648 34.733-.07 19.18-15.515 34.733-34.649 34.733z"/>
            </g>
            <g fill="#292F33">
                <path d="M64.542 131.808c-35.486 0-64.292 28.88-64.292 64.457 0 35.646 28.806 64.456 64.292 64.456 35.555 0 64.292-28.88 64.292-64.456.07-35.577-28.737-64.457-64.292-64.457zm0 109.102c-24.562 0-44.531-20.02-44.531-44.645 0-24.625 19.97-44.646 44.531-44.646 24.562 0 44.531 20.02 44.531 44.646 0 24.624-19.9 44.645-44.531 44.645zM292.208 131.808c-35.555 0-64.292 28.88-64.292 64.457 0 35.646 28.806 64.456 64.292 64.456 35.555 0 64.292-28.88 64.292-64.456 0-35.577-28.806-64.457-64.292-64.457zm0 109.102c-24.562 0-44.531-20.02-44.531-44.645 0-24.625 19.97-44.646 44.531-44.646 24.562 0 44.531 20.02 44.531 44.646 0 24.624-19.97 44.645-44.531 44.645z"/>
            </g>
            <path fill="#77B255" d="M69.393 172.827c-19.75 39.431 9.875 25.502 19.75 5.752 8.971-17.88 34.076-23.909 46.107-3.673C125.862 144.829 97.697 123 64.455 123a73.598 73.598 0 0 0-37.205 10.048c27.956 1.664 52.992 18.088 42.143 39.779"/>
            <g fill="#99AAB5">
                <path d="M297.265 192.61c0 5.512-4.442 9.907-9.856 9.907h-88.845c-5.483 0-9.856-4.465-9.856-9.907 0-5.441 4.442-9.907 9.856-9.907h88.845c5.414 0 9.856 4.466 9.856 9.907"/>
                <path d="M296.448 205.583c-4.303 3.419-10.48 2.721-13.882-1.605l-55.25-69.907c-3.401-4.325-2.707-10.534 1.597-13.953 4.303-3.419 10.48-2.721 13.882 1.605l55.25 69.907c3.4 4.325 2.707 10.534-1.597 13.953"/>
            </g>
            <path fill="#CCD6DD" d="M123.196 106.547c4.572 2.915 5.957 9.023 2.979 13.604L78.38 194.968c-2.91 4.58-9.005 5.9-13.576 2.985-4.572-2.915-5.957-9.023-2.979-13.604l47.795-74.817c2.91-4.58 9.005-5.9 13.576-2.985"/>
            <path fill="#77B255" d="M357.25 82.052c-.07-9.395-.976-17.884-19.79-8.42-19.79 9.88-9.895 15.378-29.754 5.427-19.86-9.95-31.287 4.454-41.252 4.454-9.894 0-75.465 16.631-85.43-.487-5.505-9.395-17.699-19.276-35.747-19.276-13.03 0-30.869 6.61-40.485 13.57-8.013 5.775-44.875 16.144-15.12 35.976 29.753 19.833 50.449 40.848 50.449 59.359 0 26.373-6.48 39.595 8.989 39.595h69.403s-9.895-39.595 19.79-69.31c29.754-29.713 49.544-19.762 79.298-29.713 18.744-6.263 39.58-19.763 39.649-29.645v-1.53z"/>
            <path fill="#66757F" d="M188.125 172.5c-10.987 0-19.875 8.888-19.875 19.875s8.888 19.875 19.875 19.875S208 203.362 208 192.375c.07-10.987-8.888-19.875-19.875-19.875z"/>
            <path fill="#CCD6DD" d="M347.696 145.5L256 182.487 267.054 210l91.696-36.917z"/>
            <path fill="#FFF" d="M351.32 154.5l-91.57 36.697 3.68 9.053L355 163.622z"/>
            <path fill="#66757F" d="M354.32 163.5l-91.57 36.697 3.68 9.053L358 172.622z"/>
            <g fill="#292F33">
                <path d="M256.158 83.564c-11.507.907-53.907 4.814-67.436.977-11.646-3.28-52.86 25.744-48.746 30.558 4.115 4.814 38.844 20.72 48.746 16.814 11.786-4.605 49.583-27 67.436-36 15.76-7.884 11.437-13.256 0-12.349zM337.471 73.238c-15.342.419-29.778 0-39.68 0-9.903 0-11.507 10.954 15.342 10.954s24.338-10.954 24.338-10.954z"/>
            </g>
            <path fill="#77B255" d="M91.038 62.803C71.47 62.803 64.924 44 76.345 28.528 81.08 22.006 37 58.224 37 72.725c0 7.077 23.328 25.325 52.158 39.896 28.69 14.5 21.448-49.818 1.88-49.818z"/>
            <path fill="#CCD6DD" d="M85.297 9.75s-21.47 20.322-33.521 40.015c-12.051 19.624 9.558 12.43 23.27-5.377C88.692 26.58 92.224 15.826 85.298 9.75z"/>
            <path fill="#66757F" d="M107.722 45.472l-1.332-.561c-4.767-1.894-10.095.42-12.058 5.192l-7.92 19.856c-1.893 4.771.42 10.103 5.116 12.068l1.332.561c4.767 1.895 10.095-.42 12.058-5.122l7.92-19.856c1.893-4.84-.42-10.243-5.116-12.138z"/>
            <path fill="#292F33" d="M128.189 43.748c-.903-2.552-3.749-3.863-6.317-2.966l-18.603 6.692c-2.569.966-3.888 3.725-2.985 6.278.902 2.552 3.748 3.863 6.316 2.966l18.604-6.692c2.568-.966 3.957-3.725 2.985-6.278z"/>
        </g>
    </g>
</svg>
