<svg xmlns="http://www.w3.org/2000/svg" width="197" height="212" viewBox="0 0 197 212">
    <g fill="none" fill-rule="nonzero">
        <path fill="#F4D8C3" d="M186.05 93c-6.048 0-10.95 4.843-10.95 10.818v20.84c-4.453-4.008-11.351-3.69-15.407.71a10.701 10.701 0 0 0-2.843 7.299v18.03l-17.586 9.927C129.826 165.954 124 175.87 124 186.61V212h29.2v-14.424l14.293-9.416c17.67-11.622 28.607-30.93 29.39-51.887H197v-32.455C197 97.844 192.098 93 186.05 93z"/>
        <path fill="#C63846" d="M91.449 128.495L33.03 70.102c-13.328-13.325-15.873-34.008-6.173-50.164a41.059 41.059 0 0 1 14.09-14.083C57.11-3.841 77.8-1.297 91.132 12.025l6.365 6.37 6.37-6.366c13.33-13.323 34.022-15.867 50.186-6.17a41.059 41.059 0 0 1 14.089 14.082c9.7 16.157 7.155 36.84-6.173 50.165l-58.422 58.39a8.557 8.557 0 0 1-12.1 0c.001 0 0 0 0 0z" opacity=".489"/>
        <path fill="#751616" d="M94.36 93a3.64 3.64 0 0 1-3.45-2.495L79.122 55.093 72.156 69.1a3.64 3.64 0 0 1-3.276 2.017H10.64A3.644 3.644 0 0 1 7 67.47a3.644 3.644 0 0 1 3.64-3.647h55.99l9.912-19.866a3.637 3.637 0 0 1 6.709.478l10.723 32.218 11.43-42.948A3.696 3.696 0 0 1 108.996 31a3.642 3.642 0 0 1 3.48 2.856l5.562 25.084 6.17-8.246a3.635 3.635 0 0 1 6.188.558l6.254 12.572h48.71c2.01 0 3.64 1.633 3.64 3.647a3.644 3.644 0 0 1-3.64 3.647H134.4a3.64 3.64 0 0 1-3.276-2.017l-4.626-9.29-7.386 9.848a3.635 3.635 0 0 1-5.095.735 3.647 3.647 0 0 1-1.373-2.132L108.6 50.027 97.876 90.294A3.641 3.641 0 0 1 94.47 93h-.109z"/>
        <g fill="#DDB9A2">
            <path d="M145.125 209.795h7.363v-14.37l14.416-9.38c17.823-11.578 28.853-30.812 29.643-51.691h.118v-32.332c0-5.953-4.945-10.778-11.044-10.778a33.344 33.344 0 0 1 3.681 15.218v22.273c0 3.74-.378 7.47-1.13 11.137l-.574 2.813a55.892 55.892 0 0 1-7.16 18.066 57.213 57.213 0 0 1-14.977 16.206l-20.336 14.876v17.962z"/>
            <path d="M167.214 119.984c-1.236.013-2.46.23-3.623.643 4.373 1.527 7.294 5.566 7.304 10.098v17.999l7.363.035v-17.998c0-5.952-4.945-10.777-11.044-10.777z"/>
        </g>
        <path fill="#FFF8E3" d="M167.5 124c4.142 0 7.5 3.283 7.5 7.333V135h-15v-3.667c0-4.05 3.358-7.333 7.5-7.333z"/>
        <path fill="#F4D8C3" d="M10.95 93c6.048 0 10.95 4.843 10.95 10.818v20.84c4.453-4.008 11.351-3.69 15.407.71a10.701 10.701 0 0 1 2.843 7.299v18.03l17.586 9.927C67.174 165.954 73 175.87 73 186.61V212H43.8v-14.424l-14.293-9.416C11.837 176.538.9 157.23.117 136.273H0v-32.455C0 97.844 4.902 93 10.95 93z"/>
        <g fill="#DDB9A2">
            <path d="M51.665 209.795h-7.363v-14.37l-14.416-9.38C12.064 174.468 1.033 155.234.243 134.355H.125v-32.332c0-5.953 4.945-10.778 11.044-10.778a33.344 33.344 0 0 0-3.681 15.218v22.273c0 3.74.378 7.47 1.13 11.137l.574 2.813a55.892 55.892 0 0 0 7.16 18.066 57.213 57.213 0 0 0 14.977 16.206l20.336 14.876v17.962z"/>
            <path d="M29.576 119.984c1.237.013 2.461.23 3.623.643-4.373 1.527-7.294 5.566-7.304 10.098v17.999l-7.363.035v-17.998c0-5.952 4.945-10.777 11.044-10.777z"/>
        </g>
        <path fill="#FFF8E3" d="M36 135H21v-3.667c0-4.05 3.358-7.333 7.5-7.333 4.142 0 7.5 3.283 7.5 7.333V135z"/>
    </g>
</svg>
