<svg xmlns="http://www.w3.org/2000/svg" width="256" height="247" viewBox="0 0 256 247">
    <g fill="none" fill-rule="nonzero">
        <path fill="#CCD33D" d="M100.08 161c-20.698 0-35.471-13.171-46.234-22.79-6.805-6.093-12.678-11.33-17.413-11.357H31l.31-5.444C33.931 74.633 72.526 38.036 119.277 38c1.83 0 3.64.052 5.434.156h1.837l1.345 1.244c14.514 13.405 14.8 28.261.88 44.077a183.913 183.913 0 0 1-19.094 17.89c-8.978 7.778-17.464 14.882-20.336 21.364a8.412 8.412 0 0 0-.13 8.349c1.76 3.163 5.977 6.274 12.549 9.178a58.015 58.015 0 0 1 14.152 8.012h.698l3.131 4.044-1.656 6.404h-3.079a39.39 39.39 0 0 1-13.35 2.178l-1.578.104z"/>
        <path fill="#73DDCD" d="M119.676 215c-47.69.002-86.816-37.8-88.494-85.503L31 123.958l5.534.156c6.002.156 11.874 5.41 19.305 12.04 11.042 9.856 24.76 22.104 44.428 22.104h1.56a34.93 34.93 0 0 0 13.224-2.34c.987-.52 1.559-1.067 1.689-1.613.13-.546.207-.832-.858-2.132-1.065-1.3-4.677-4.55-15.017-9.127a29.95 29.95 0 0 1-12.523-8.998 11.919 11.919 0 0 1-1.196-12.3c3.17-7.125 11.484-14.224 21.15-22.442a183.951 183.951 0 0 0 18.784-17.579c11.536-13.158 12.991-23.403 5.197-33.805L124.118 37l13.355 2.6a87.987 87.987 0 0 1 35.777 16.123l2.884 2.184-6.755 22.39 7.17 7.177 10.523-19.113 4.78 6.735a88.05 88.05 0 0 1 14.29 32.116l.858 3.926-3.56 1.795c-13.822 7.02-14.29 11-15.173 18.203-.961 7.8-2.26 18.775-25.436 38.122a66.797 66.797 0 0 0-16.109 17.76 29.325 29.325 0 0 0-3.3 19.764l.806 4.967-4.78 1.092A88.875 88.875 0 0 1 119.676 215z"/>
        <path fill="#FFF" d="M212.48 87.894l4.432-14.67-18.78-17.687-20.721 37.395-11.2-11.205 13.298-43.798-15.947-15.037a10.738 10.738 0 0 1-2.754-12.072 13.445 13.445 0 0 1 7.108-7.111h.262a10.731 10.731 0 0 1 3.83-.709 10.9 10.9 0 0 1 7.868 3.569l15.003 15.929 43.83-13.252 11.2 11.205-37.377 20.653 17.678 18.763 14.688-4.435L254 64.538l-17.81 9.894-3.173 1.574-1.443 2.94L221.476 97l-8.997-9.106z"/>
        <path fill="#CCD33D" d="M141.386 206.007a31.527 31.527 0 0 1 3.833-20.666 69.409 69.409 0 0 1 17.166-18.495c22.521-18.496 23.624-28.21 24.674-36.036.866-7.052 2.415-12.529 14.646-19.142l6.799-3.668.84 7.595a87.87 87.87 0 0 1 .656 10.797c.052 23.37-9.4 45.788-26.249 62.256-9.953 9.78-22.098 17.124-35.461 21.44L142.33 212l-.945-5.993z"/>
        <g fill="#2B1B19">
            <path d="M35.335 206.372a3.894 3.894 0 0 0 0 5.512 99.39 99.39 0 0 0 8.129 7.358 3.912 3.912 0 0 0 5.526.003 3.892 3.892 0 0 0-.317-5.8l-.261-.209c-2.606-2.158-5.211-4.472-7.608-6.864a3.91 3.91 0 0 0-5.47 0zM4.093 116.308h.495a3.906 3.906 0 0 0 3.883-3.432c.417-3.38.99-6.786 1.72-10.088.805-1.999-.165-4.269-2.168-5.072a3.91 3.91 0 0 0-5.363 3.437 116.557 116.557 0 0 0-1.824 10.79 3.9 3.9 0 0 0 3.257 4.365zM18.294 182.894a3.894 3.894 0 0 0-1.355 5.356 118.043 118.043 0 0 0 6.071 9.126 3.914 3.914 0 0 0 5.487.658 3.895 3.895 0 0 0 .819-5.26 115.094 115.094 0 0 1-5.655-8.528 3.911 3.911 0 0 0-5.367-1.352zM7.324 155.88a3.899 3.899 0 0 0-2.605 4.836 129.219 129.219 0 0 0 3.595 10.4 3.974 3.974 0 0 0 5.16 2.21 3.96 3.96 0 0 0 2.214-5.148 111.57 111.57 0 0 1-3.36-9.672 3.91 3.91 0 0 0-4.847-2.6l-.157-.026zM10.477 87.864a3.912 3.912 0 0 0 5.078-2.176c0-.002.003-.005.003-.008a93.35 93.35 0 0 1 4.195-9.334 3.897 3.897 0 0 0-1.733-5.239 3.913 3.913 0 0 0-5.25 1.73 114.91 114.91 0 0 0-4.482 10.01 3.898 3.898 0 0 0 2.19 5.017zM4.615 145.402h.65a3.904 3.904 0 0 0 3.39-4.357c0-.003 0-.008-.002-.01-.417-3.38-.703-6.813-.834-10.193a3.909 3.909 0 0 0-4.051-3.757 3.908 3.908 0 0 0-3.765 4.043c.06 3.656.357 7.304.886 10.92a3.905 3.905 0 0 0 3.726 3.354zM97.843 16.702h.755a112.55 112.55 0 0 1 10.162-1.482 3.93 3.93 0 0 0 3.802-4.053 3.932 3.932 0 0 0-4.557-3.747c-3.622.364-7.27.884-10.866 1.586a3.93 3.93 0 0 0-3.835 4.023 3.931 3.931 0 0 0 4.562 3.777l-.023-.104zM25.72 62.644a3.907 3.907 0 0 0 3.179-1.612 111.743 111.743 0 0 1 6.383-8.008 3.92 3.92 0 0 0-.13-5.55 3.941 3.941 0 0 0-5.758.35c-2.397 2.6-4.69 5.616-6.827 8.58a3.895 3.895 0 0 0 .873 5.447 3.925 3.925 0 0 0 2.28.741v.052zM136.875 15.87h.599a3.918 3.918 0 0 0 4.195-3.614 3.915 3.915 0 0 0-3.622-4.186 117.65 117.65 0 0 0-10.917-1.144 3.914 3.914 0 0 0-4.143 3.666 3.911 3.911 0 0 0 3.674 4.134c3.44.26 6.852.624 10.214 1.144zM48.128 40.544a105.363 105.363 0 0 1 8.182-6.188 3.895 3.895 0 0 0 .83-5.452 3.918 3.918 0 0 0-5.26-.97 126.354 126.354 0 0 0-8.755 6.604 3.9 3.9 0 0 0-.508 5.5 3.92 3.92 0 0 0 5.511.506zM70.171 25.75a3.903 3.903 0 0 0 1.668-.39 111.565 111.565 0 0 1 9.458-3.952 3.897 3.897 0 0 0 2.489-4.924 3.91 3.91 0 0 0-4.547-2.59l-.547.182a97.41 97.41 0 0 0-10.11 4.238 3.896 3.896 0 0 0-1.894 5.182 3.908 3.908 0 0 0 3.562 2.254h-.079zM116.864 238.794a3.908 3.908 0 0 0-4.013 3.796 3.906 3.906 0 0 0 3.804 4.004h3.257c2.606 0 5.211 0 7.66-.234a3.912 3.912 0 0 0 3.662-4.147 3.915 3.915 0 0 0-4.156-3.653 97.015 97.015 0 0 1-10.214.234zM228.2 169.374a3.91 3.91 0 0 0 4.998-2.353l.006-.013a128.87 128.87 0 0 0 3.205-10.4 3.9 3.9 0 0 0-2.56-4.89 3.909 3.909 0 0 0-5.025 3.07 105.852 105.852 0 0 1-2.997 9.776 3.901 3.901 0 0 0 2.374 4.81zM234.559 111.68h.65a3.902 3.902 0 0 0 3.232-4.472c-.6-3.588-1.355-7.202-2.267-10.712a3.91 3.91 0 0 0-4.872-2.605 3.898 3.898 0 0 0-2.684 4.581c.86 3.276 1.563 6.656 2.136 10.01a3.905 3.905 0 0 0 3.805 3.198z"/>
            <path d="M237.607 7.212L196.1 19.744 182.134 4.95a12.655 12.655 0 0 0-14.383-3.406h-.235a15.36 15.36 0 0 0-8.363 8.346 14.075 14.075 0 0 0-.834 3.068l-1.59-.546a3.915 3.915 0 0 0-4.924 2.522 3.903 3.903 0 0 0 2.527 4.914c2.006.65 4.013 1.378 6.02 2.132a14.9 14.9 0 0 0 2.11 2.6l14.773 13.936-4.22 13.91C131.728 23.041 74.39 32.614 44.938 73.811c-29.451 41.197-19.855 98.413 21.43 127.8 41.286 29.389 98.625 19.813 128.076-21.384 23.485-32.851 22.664-77.166-2.019-109.133l6.67-12.012 15.478 14.56-3.726 12.298a3.764 3.764 0 0 0 .86 3.848s7.634 7.54 7.816 7.8a3.784 3.784 0 0 0 5.178-1.318c.01-.02.023-.039.033-.06l10.188-18.642 18.396-10.01a3.791 3.791 0 0 0 1.12-6.11l-6.852-7.254a3.786 3.786 0 0 0-3.779-.936l-12.454 3.77-14.592-15.444 32.753-18.2a3.791 3.791 0 0 0 1.12-6.11l-9.198-9.178a3.814 3.814 0 0 0-3.83-.884zM60.635 67.584a83.761 83.761 0 0 1 59.277-24.44c1.738 0 3.473.052 5.211.156 14.774 13.598 10.423 26 .522 37.18a182.62 182.62 0 0 1-18.76 17.264c-9.615 8.164-18.579 15.782-21.966 23.4-4.013 9.048-1.068 17.238 15.139 24.388 8.103 3.588 12.506 6.37 14.226 8.476.235.286.47 0 .417 0-.18.013-.357.058-.521.13a32.445 32.445 0 0 1-12.299 2.106c-19.646.832-33.638-11.7-44.503-21.398-7.817-6.942-14.305-12.714-21.053-12.766a83.408 83.408 0 0 1 24.31-54.496zm143.308 59.228c-.026 36.265-23.42 68.401-57.975 79.638a27.235 27.235 0 0 1 3.205-17.706 64.49 64.49 0 0 1 15.634-17.16c24.05-20.02 25.404-31.2 26.446-39.806.652-5.434 1.147-9.49 11.908-15.392.43 3.45.649 6.924.651 10.4l.13.026zM199.07 98.68a82.927 82.927 0 0 1 2.866 10.01c-16.389 8.32-17.118 14.248-18.108 22.334-.886 7.28-2.033 16.796-23.764 34.892a71.147 71.147 0 0 0-17.457 19.318 34.423 34.423 0 0 0-3.908 23.218c-45.2 10.31-90.217-17.893-100.55-62.998a83.49 83.49 0 0 1-2.059-15.704c4.143 0 9.51 4.914 16.103 10.764 11.933 10.634 27.202 24.206 49.949 23.4 5.36.091 10.68-.917 15.634-2.964a7.804 7.804 0 0 0 4.325-4.888 7.423 7.423 0 0 0-1.876-6.786c-2.45-2.99-7.817-6.526-17.04-10.634-11.022-4.862-13.42-9.594-11.257-14.43 2.606-6.084 10.996-13 19.907-20.8a189.517 189.517 0 0 0 19.568-18.2c10.891-12.376 16.493-26 5.42-40.638a83.486 83.486 0 0 1 33.872 15.366l-5.993 19.734a3.787 3.787 0 0 0 .912 3.848s9.72 9.62 10.032 9.802a3.784 3.784 0 0 0 5.177-1.318c.01-.02.024-.039.034-.06l7.582-13.676a83.572 83.572 0 0 1 10.631 20.41zm9.693-61.36a3.765 3.765 0 0 0-1.568 5.096c.018.034.036.07.057.104.156.286 20.089 21.45 20.089 21.45a3.785 3.785 0 0 0 3.856 1.014l12.585-3.796 1.955 1.95-11.726 6.474-3.36 1.664a3.744 3.744 0 0 0-1.72 1.742l-1.668 3.38-6.488 11.7-1.902-2.08 3.778-12.454a3.767 3.767 0 0 0-1.225-4.004l-20.558-19.292a3.783 3.783 0 0 0-5.341 0c-.26.286-18.76 33.54-18.76 33.54l-4.04-4.03 12.612-41.47a3.765 3.765 0 0 0-1.225-4.03l-16.467-15.21a5.4 5.4 0 0 1-1.485-6.24 8.167 8.167 0 0 1 4.247-4.212h.13a5.426 5.426 0 0 1 6.097 1.56L192.27 26.66a3.78 3.78 0 0 0 3.856 1.04l41.69-12.558 4.038 4.03-33.09 18.148zM223.771 179.176a3.911 3.911 0 0 0-5.21 1.534 103.288 103.288 0 0 1-5.368 8.736 3.905 3.905 0 0 0 .95 5.447 3.924 3.924 0 0 0 5.46-.949 131.76 131.76 0 0 0 5.732-9.334 3.896 3.896 0 0 0-1.381-5.33l-.183-.104zM239.77 137.654c.338-3.614.495-7.28.495-10.92v-.546a3.902 3.902 0 0 0-3.909-3.874 3.903 3.903 0 0 0-4.01 3.794c0 .026 0 .052-.002.08v.598c0 3.406-.157 6.838-.47 10.244a3.903 3.903 0 0 0 3.54 4.238h.369a3.904 3.904 0 0 0 3.987-3.614zM89.062 234.556a3.914 3.914 0 0 0-4.99 2.38 3.901 3.901 0 0 0 2.384 4.978h.47c3.49.988 7.087 1.846 10.682 2.6h.73a3.934 3.934 0 0 0 4.515-3.244 3.928 3.928 0 0 0-3.783-4.556 80.578 80.578 0 0 1-10.008-2.158zM154.801 233.36a77.922 77.922 0 0 1-9.875 2.6 3.905 3.905 0 0 0-2.957 4.667 3.914 3.914 0 0 0 4.677 2.951 124.859 124.859 0 0 0 10.578-2.912 3.899 3.899 0 0 0 2.317-5.007 3.909 3.909 0 0 0-4.74-2.403v.104zM63.162 223.48a3.913 3.913 0 0 0-5.425 1.053 3.894 3.894 0 0 0 1.465 5.653c3.153 1.846 6.41 3.562 9.719 5.2a3.921 3.921 0 0 0 5.21-1.872 3.905 3.905 0 0 0-1.875-5.2c-3.1-1.506-6.15-3.17-9.094-4.834zM201.91 203.434a94.775 94.775 0 0 1-7.347 7.15 3.897 3.897 0 0 0-.313 5.512 3.918 3.918 0 0 0 5.524.312c2.605-2.418 5.367-4.992 7.817-7.644a3.892 3.892 0 0 0-.25-5.509 3.916 3.916 0 0 0-5.457.18h.026zM180.232 221.374c-2.866 1.82-5.863 3.536-8.885 5.2a3.899 3.899 0 0 0-1.694 5.252 3.915 3.915 0 0 0 5.263 1.69c3.231-1.664 6.436-3.51 9.51-5.46a3.895 3.895 0 0 0 1.07-5.41 3.914 3.914 0 0 0-5.082-1.272h-.182z"/>
        </g>
    </g>
</svg>
